<svg xmlns="http://www.w3.org/2000/svg" viewBox="0 0 64 64" role="img" aria-labelledby="title">
  <title>Crystal ball</title>
  <defs>
    <radialGradient id="globe" cx="34%" cy="26%" r="68%">
      <stop offset="0%" stop-color="#ffffff"/>
      <stop offset="30%" stop-color="#d8f3ff"/>
      <stop offset="66%" stop-color="#a78bfa"/>
      <stop offset="100%" stop-color="#5b21b6"/>
    </radialGradient>
    <linearGradient id="base" x1="16" y1="48" x2="48" y2="62" gradientUnits="userSpaceOnUse">
      <stop offset="0%" stop-color="#6d28d9"/>
      <stop offset="55%" stop-color="#312e81"/>
      <stop offset="100%" stop-color="#111827"/>
    </linearGradient>
  </defs>
  <rect width="64" height="64" rx="16" fill="#1e1b4b"/>
  <path d="M20 50h24l5 10H15z" fill="url(#base)"/>
  <path d="M19 55h26" stroke="#c4b5fd" stroke-width="3" stroke-linecap="round" opacity=".75"/>
  <circle cx="32" cy="27" r="21" fill="url(#globe)"/>
  <circle cx="32" cy="27" r="20" fill="none" stroke="#f5f3ff" stroke-width="2" opacity=".65"/>
  <path d="M18 30c6 6 22 6 28 0" fill="none" stroke="#f0abfc" stroke-width="2.5" stroke-linecap="round" opacity=".5"/>
  <circle cx="24" cy="18" r="5" fill="#fff" opacity=".75"/>
  <circle cx="20" cy="27" r="2" fill="#fff" opacity=".65"/>
  <path d="M47 12l1.5 4.5L53 18l-4.5 1.5L47 24l-1.5-4.5L41 18l4.5-1.5z" fill="#fde68a"/>
  <path d="M14 15l1 3 3 1-3 1-1 3-1-3-3-1 3-1z" fill="#fef3c7"/>
</svg>
